<svg width="16" height="17" viewBox="0 0 16 17" fill="none" xmlns="http://www.w3.org/2000/svg">
<path d="M13.9375 1.32812H12.5V0.53125C12.5 0.239062 12.275 0 12 0C11.725 0 11.5 0.239062 11.5 0.53125V1.32812H4.5V0.53125C4.5 0.239062 4.275 0 4 0C3.725 0 3.5 0.239062 3.5 0.53125V1.32812H2.0625C0.925 1.32812 0 2.31094 0 3.51953V14.8086C0 16.0172 0.925 17 2.0625 17H13.9375C15.075 17 16 16.0172 16 14.8086V3.51953C16 2.31094 15.075 1.32812 13.9375 1.32812ZM2.0625 2.39062H3.5V2.92188C3.5 3.21406 3.725 3.45312 4 3.45312C4.275 3.45312 4.5 3.21406 4.5 2.92188V2.39062H11.5V2.92188C11.5 3.21406 11.725 3.45312 12 3.45312C12.275 3.45312 12.5 3.21406 12.5 2.92188V2.39062H13.9375C14.5219 2.39062 15 2.89863 15 3.51953V4.78125H1V3.51953C1 2.89863 1.47812 2.39062 2.0625 2.39062ZM13.9375 15.9375H2.0625C1.47812 15.9375 1 15.4295 1 14.8086V5.84375H15V14.8086C15 15.4295 14.5219 15.9375 13.9375 15.9375Z" fill="white"/>
</svg>
