<svg width="17" height="18" viewBox="0 0 17 18" fill="none" xmlns="http://www.w3.org/2000/svg">
<path d="M8.5 0C3.80176 0 0 4.02539 0 9C0 13.9746 3.80176 18 8.5 18C13.1982 18 17 13.9746 17 9C17 4.02539 13.1982 0 8.5 0ZM8.5 16.8012C4.43926 16.8012 1.13223 13.3031 1.13223 9C1.13223 4.69687 4.43926 1.19883 8.5 1.19883C12.5607 1.19883 15.8678 4.70039 15.8678 9C15.8678 13.2996 12.5607 16.8012 8.5 16.8012Z" fill="white"/>
<path d="M10.2534 8.8205H8.40069V5.47715C8.40069 5.14668 8.14834 4.87598 7.83291 4.87598C7.51748 4.87598 7.26514 5.14316 7.26514 5.47715V9.42167C7.26514 9.75214 7.51748 10.0228 7.83291 10.0228H10.2534C10.5655 10.0228 10.8212 9.75566 10.8212 9.42167C10.8212 9.08769 10.5655 8.8205 10.2534 8.8205Z" fill="white"/>
</svg>
